<svg xmlns="http://www.w3.org/2000/svg">
  <symbol id="logo" viewBox="0 0 39 50" fill="none">
    <g>
      <path d="M25.7059 0H0V24.9916H25.7059V0Z" fill="#1E3787"/>
      <path fill-rule="evenodd" clip-rule="evenodd" d="M25.6459 24.9916C18.5505 24.9916 12.793 19.3941 12.793 12.4958C12.793 5.59752 18.5505 0 25.6459 0C32.7413 0 38.4988 5.59752 38.4988 12.4958C38.4988 19.3941 32.7413 24.9916 25.6459 24.9916ZM25.6459 25.0078H0V49.9994H25.6459H25.7059V49.9993C32.7738 49.9679 38.4988 44.3825 38.4988 37.5036C38.4988 30.6248 32.7738 25.0394 25.7059 25.0079V25.0078H25.6459Z" fill="#FFB900"/>
      <path d="M0 49.9743V25.0078C7.08681 25.0078 12.8357 30.5969 12.8357 37.4868V37.5036C12.8357 44.3935 7.08681 49.9743 0 49.9743Z" fill="#1E3787"/>
    </g>
  </symbol>
  <symbol id="logo-text" viewBox="0 0 112 22" fill="none">
    <path d="M0.0800781 1.56055H4.11815V21.1017H0.0800781V1.56055ZM2.09585 18.0602H7.59339C8.74526 18.0602 9.62879 17.8217 10.244 17.3512C10.8592 16.8741 11.1668 16.1916 11.1668 15.2838V15.2573C11.1668 14.6609 11.0294 14.1573 10.7479 13.7465C10.4665 13.3356 10.0476 13.0242 9.49135 12.8188C8.93505 12.6133 8.24786 12.5073 7.42323 12.5073H2.10239V9.73087H6.94546C8.08424 9.73087 8.95469 9.49895 9.55025 9.04173C10.1458 8.58451 10.4403 7.9285 10.4403 7.08032V7.05381C10.4403 6.27853 10.1785 5.67553 9.64843 5.25144C9.11831 4.82735 8.3853 4.61531 7.44286 4.61531H2.10893V1.56717H8.49001C9.71387 1.56717 10.761 1.76597 11.6446 2.16355C12.5281 2.56113 13.2087 3.12437 13.693 3.8599C14.1774 4.59543 14.413 5.46348 14.413 6.46407V6.49057C14.413 7.21285 14.2493 7.87548 13.9221 8.48511C13.5949 9.09474 13.1498 9.59834 12.5935 10.0026C12.0372 10.4068 11.3959 10.6519 10.6825 10.7513V10.8308C11.5857 10.8839 12.3841 11.1224 13.0778 11.5399C13.7716 11.9573 14.3213 12.5073 14.714 13.1898C15.1132 13.8724 15.3096 14.641 15.3096 15.4958V15.5223C15.3096 16.6621 15.0413 17.6428 14.498 18.4777C13.9614 19.306 13.1891 19.9487 12.1943 20.406C11.1995 20.8632 10.0149 21.0885 8.62745 21.0885H2.10239V18.0602H2.09585Z" fill="#1E3787"/>
    <path d="M17.8098 4.11822C17.4041 3.70738 17.2012 3.22366 17.2012 2.66041C17.2012 2.09055 17.4041 1.60682 17.8098 1.20261C18.2156 0.798401 18.713 0.599609 19.302 0.599609C19.891 0.599609 20.3884 0.798401 20.7877 1.20261C21.1869 1.60682 21.3898 2.09055 21.3898 2.66041C21.3898 3.21703 21.1869 3.70738 20.7877 4.11822C20.3884 4.52905 19.891 4.73447 19.302 4.73447C18.713 4.73447 18.2156 4.52905 17.8098 4.11822ZM17.3321 6.58986H21.2523V21.1083H17.3321V6.58986Z" fill="#1E3787"/>
    <path d="M27.1229 20.385C26.3572 19.7091 25.971 18.5958 25.971 17.0386V9.56409H23.9814V6.58222H25.971V3.03711H29.9175V6.58222H32.5419V9.56409H29.9175V16.6079C29.9175 17.2838 30.068 17.7543 30.3625 18.026C30.6636 18.291 31.1021 18.4236 31.6911 18.4236C31.8678 18.4236 32.0249 18.4169 32.1623 18.4037C32.2932 18.3904 32.4241 18.3772 32.5354 18.3573V21.253C32.3194 21.2862 32.0576 21.3259 31.7369 21.3524C31.4228 21.3856 31.0563 21.3988 30.644 21.3988C29.0667 21.3988 27.8886 21.0609 27.1229 20.385Z" fill="#1E3787"/>
    <path d="M39.8262 20.4855C38.995 19.9024 38.3798 19.1138 37.9675 18.1199H37.9282V21.1017H36.1611V1.56055H37.9282V9.96942H37.9675C38.3667 8.99534 38.9884 8.21343 39.8327 7.63031C40.677 7.04719 41.6456 6.75563 42.7386 6.75563C43.897 6.75563 44.918 7.06044 45.7949 7.66344C46.6719 8.26644 47.3591 9.11462 47.8565 10.2013C48.3539 11.2881 48.5961 12.567 48.5961 14.038V14.0513C48.5961 15.5157 48.3539 16.7946 47.8631 17.8879C47.3722 18.9879 46.685 19.8361 45.8015 20.4391C44.918 21.0421 43.8904 21.3469 42.7124 21.3469C41.6194 21.3602 40.6574 21.0686 39.8262 20.4855ZM44.7282 19.0674C45.3892 18.6036 45.9062 17.941 46.2662 17.0862C46.6261 16.2313 46.8094 15.2241 46.8094 14.0645V14.0513C46.8094 12.8983 46.6261 11.8911 46.2662 11.0363C45.9062 10.1815 45.3892 9.52545 44.7282 9.06161C44.0606 8.59776 43.2883 8.36584 42.3917 8.36584C41.5147 8.36584 40.749 8.60439 40.0749 9.07486C39.4073 9.54533 38.8772 10.2146 38.491 11.0694C38.1049 11.9242 37.9086 12.9182 37.9086 14.0513V14.0645C37.9086 15.191 38.0984 16.1916 38.4845 17.053C38.8706 17.9144 39.3942 18.5837 40.0683 19.0608C40.7424 19.5313 41.5082 19.7698 42.3786 19.7698C43.2818 19.7632 44.0671 19.5313 44.7282 19.0674Z" fill="#1E3787"/>
    <path d="M52.6802 20.8373C51.9864 20.4927 51.4432 20.0023 51.0571 19.3728C50.6709 18.7433 50.4746 18.0211 50.4746 17.1994V17.1795C50.4746 15.9801 50.9066 15.0259 51.7705 14.3302C52.6344 13.6278 53.8648 13.2302 55.4617 13.1308L60.6778 12.7928V14.1844L55.6776 14.5223C54.5912 14.6018 53.7469 14.8735 53.1579 15.3307C52.5624 15.788 52.2678 16.4042 52.2678 17.1795V17.206C52.2678 17.9813 52.5624 18.6108 53.1514 19.0813C53.7404 19.5584 54.4996 19.7903 55.4355 19.7903C56.2536 19.7903 56.9931 19.618 57.6476 19.2668C58.3021 18.9222 58.8256 18.4451 59.2118 17.8355C59.5979 17.2259 59.7942 16.5566 59.7942 15.8012V11.6133C59.7942 10.5929 59.4932 9.79109 58.8911 9.21459C58.289 8.6381 57.4447 8.34654 56.3583 8.34654C55.3504 8.34654 54.5258 8.57846 53.8909 9.03568C53.2561 9.49953 52.8569 10.129 52.7063 10.9308L52.6802 11.0634H50.9785L50.9916 10.8977C51.0833 10.0827 51.3516 9.367 51.8097 8.74412C52.2613 8.12124 52.8765 7.63089 53.6553 7.27306C54.4341 6.91524 55.3373 6.73633 56.3845 6.73633C57.4447 6.73633 58.361 6.92849 59.1332 7.31282C59.9055 7.69715 60.5011 8.24052 60.9265 8.94291C61.3519 9.64531 61.5613 10.4802 61.5613 11.4344V21.0758H59.7942V18.4915H59.755C59.5063 19.0614 59.1463 19.5584 58.6686 19.9825C58.1973 20.4066 57.6541 20.7379 57.0389 20.9764C56.4237 21.215 55.7693 21.3342 55.0886 21.3342C54.1789 21.3607 53.3739 21.1885 52.6802 20.8373Z" fill="#1E3787"/>
    <path d="M64.5319 7.0198H66.299V9.4318H66.3383C66.6917 8.66314 67.2545 8.02701 68.0268 7.53003C68.7925 7.02643 69.735 6.78125 70.8476 6.78125C72.3921 6.78125 73.5963 7.25172 74.4602 8.18604C75.3241 9.12036 75.7561 10.4258 75.7561 12.089V21.1075H73.989V12.3805C73.989 11.0751 73.6749 10.0746 73.0531 9.38542C72.4314 8.69627 71.5217 8.35833 70.3371 8.35833C69.5255 8.35833 68.8187 8.54387 68.2101 8.91494C67.6014 9.28602 67.1302 9.79625 66.7964 10.4523C66.4626 11.1083 66.2925 11.8769 66.2925 12.7582V21.1009H64.5254V7.0198H64.5319Z" fill="#1E3787"/>
    <path d="M78.8916 1.56055H80.6456V21.1017H78.8916V1.56055ZM80.2202 13.6669H80.7045L87.5502 7.02068H89.7165L83.0278 13.5212H82.91L80.2202 16.0524V13.6669ZM82.092 14.0314L83.27 12.8386L89.8474 21.1017H87.7728L82.092 14.0314Z" fill="#1E3787"/>
    <path d="M93.0347 20.4729C92.0922 19.8831 91.3592 19.0416 90.8487 17.9549C90.3382 16.8681 90.083 15.5826 90.083 14.1049V14.0917C90.083 12.6206 90.3382 11.3351 90.8487 10.2351C91.3592 9.13515 92.0791 8.28035 93.0085 7.67735C93.9378 7.07435 95.0177 6.76953 96.2612 6.76953C97.4981 6.76953 98.5715 7.06109 99.4812 7.64421C100.384 8.22733 101.085 9.04901 101.582 10.1026C102.079 11.1562 102.322 12.3887 102.322 13.8001V14.5025H90.9665V13.0712H101.464L100.568 14.3567V13.6808C100.568 12.5279 100.384 11.5538 100.011 10.7652C99.6383 9.9767 99.1343 9.38032 98.4864 8.96949C97.8385 8.56528 97.0924 8.35986 96.2481 8.35986C95.4038 8.35986 94.6447 8.56528 93.9902 8.98274C93.3357 9.4002 92.8122 10.0032 92.4326 10.805C92.053 11.6068 91.8632 12.561 91.8632 13.6808V14.3567C91.8632 15.5031 92.053 16.4772 92.4326 17.279C92.8122 18.0808 93.3423 18.697 94.0295 19.1211C94.7166 19.5452 95.5217 19.7572 96.451 19.7572C97.1316 19.7572 97.7338 19.6512 98.2704 19.4392C98.8071 19.2271 99.2521 18.9289 99.6055 18.538C99.9589 18.147 100.214 17.6964 100.371 17.1862L100.411 17.0669H102.151L102.125 17.1994C102.001 17.7958 101.772 18.3458 101.451 18.856C101.124 19.3663 100.712 19.8102 100.214 20.1813C99.7168 20.559 99.1474 20.844 98.4995 21.0494C97.8516 21.2548 97.1644 21.3542 96.4117 21.3542C95.1028 21.3608 93.9771 21.0693 93.0347 20.4729Z" fill="#1E3787"/>
    <path d="M104.684 7.02015H106.451V9.55142H106.49C106.739 8.68337 107.164 8.00085 107.753 7.50387C108.349 7.0069 109.069 6.76172 109.913 6.76172C110.142 6.76172 110.358 6.7816 110.555 6.81473C110.751 6.84786 110.901 6.88762 111.006 6.92075V8.67012C110.888 8.61711 110.718 8.57072 110.483 8.53096C110.254 8.4912 109.979 8.47132 109.665 8.47132C109.01 8.47132 108.447 8.63036 107.956 8.95505C107.472 9.27312 107.099 9.73034 106.831 10.3135C106.569 10.9032 106.438 11.5923 106.438 12.3875V21.1078H104.671V7.02015H104.684Z" fill="#1E3787"/>
  </symbol>
  <symbol id="gear" viewBox="0 0 16 16" fill="none">
    <path d="M14.9883 6.32939L13.8611 6.08433C13.763 5.78422 13.6416 5.4915 13.4983 5.20951L14.1223 4.2388C14.2338 4.06536 14.2093 3.83765 14.0636 3.69196L12.3075 1.93583C12.1618 1.79014 11.9341 1.76564 11.7606 1.87709L10.7899 2.50114C10.5079 2.3578 10.2152 2.23639 9.9151 2.13837L9.67004 1.01111C9.62629 0.809692 9.44793 0.666016 9.24181 0.666016H6.75835C6.55224 0.666016 6.37387 0.809692 6.33012 1.01111L6.08506 2.13837C5.78495 2.23639 5.49223 2.3578 5.21025 2.50114L4.23953 1.87709C4.06609 1.76564 3.83838 1.79014 3.69269 1.93583L1.93656 3.69196C1.79087 3.83765 1.76637 4.06536 1.87782 4.2388L2.50187 5.20951C2.35853 5.4915 2.23712 5.78422 2.1391 6.08433L1.01184 6.32939C0.810425 6.37325 0.666748 6.5515 0.666748 6.75762V9.24108C0.666748 9.44719 0.810425 9.62545 1.01184 9.66931L2.1391 9.91437C2.23712 10.2145 2.35853 10.5072 2.50187 10.7892L1.87782 11.7599C1.76637 11.9333 1.79087 12.1611 1.93656 12.3067L3.69269 14.0629C3.83838 14.2086 4.06609 14.2331 4.23953 14.1216L5.21025 13.4976C5.49223 13.6409 5.78495 13.7623 6.08506 13.8603L6.33012 14.9876C6.37387 15.189 6.55224 15.3327 6.75835 15.3327H9.24181C9.44793 15.3327 9.62629 15.189 9.67004 14.9876L9.9151 13.8603C10.2152 13.7623 10.5079 13.6409 10.7899 13.4976L11.7606 14.1216C11.9341 14.2331 12.1618 14.2087 12.3075 14.0629L14.0636 12.3067C14.2093 12.1611 14.2338 11.9333 14.1223 11.7599L13.4983 10.7892C13.6416 10.5072 13.763 10.2145 13.8611 9.91437L14.9883 9.66931C15.1897 9.62545 15.3334 9.44719 15.3334 9.24108V6.75762C15.3334 6.5515 15.1897 6.37325 14.9883 6.32939V6.32939ZM10.6296 7.99935C10.6296 9.44921 9.44994 10.6288 8.00008 10.6288C6.55022 10.6288 5.3706 9.44921 5.3706 7.99935C5.3706 6.54949 6.55022 5.36986 8.00008 5.36986C9.44994 5.36986 10.6296 6.54949 10.6296 7.99935V7.99935Z" fill="currentColor" />
  </symbol>
  <symbol id="chat" viewBox="0 0 16 16" fill="none">
    <path d="M8.12189 0.666016C4.14551 0.666016 0.910776 3.90075 0.910776 7.87713C0.910776 9.13504 1.2398 10.3709 1.86313 11.4582L0.678799 15.011C0.650443 15.0963 0.670976 15.1899 0.732332 15.2554C0.779265 15.3055 0.844287 15.3327 0.910776 15.3327C0.931554 15.3327 0.952332 15.33 0.972865 15.3246L4.85146 14.3041C5.85906 14.8174 6.98766 15.0882 8.12189 15.0882C12.0983 15.0882 15.333 11.8535 15.333 7.87713C15.333 3.90075 12.0983 0.666016 8.12189 0.666016Z" fill="currentColor" />
  </symbol>
  <symbol id="chat-message" viewBox="0 0 20 20" fill="none">
    <path d="M16.5569 3H3.44278C2.09549 3 1 4.09596 1 5.44313V13.1331C1 14.4802 2.09549 15.5762 3.44278 15.5762H13.3415L15.4019 18.0107C15.4723 18.0944 15.5757 18.1402 15.6816 18.1402C15.7238 18.1402 15.766 18.1323 15.8075 18.1173C15.952 18.0643 16.0478 17.927 16.0478 17.7739V15.5761H16.5572C17.9043 15.5761 19 14.4802 19 13.133V5.44313C18.9997 4.09596 17.9044 3 16.5569 3ZM7.18042 10.2514C6.7072 10.2514 6.32357 9.86785 6.32357 9.39499C6.32357 8.92141 6.7072 8.53796 7.18042 8.53796C7.65328 8.53796 8.03709 8.92141 8.03709 9.39499C8.03709 9.86791 7.65328 10.2514 7.18042 10.2514ZM9.99967 10.2514C9.52645 10.2514 9.143 9.86785 9.143 9.39499C9.143 8.92141 9.52645 8.53796 9.99967 8.53796C10.4725 8.53796 10.8562 8.92141 10.8562 9.39499C10.8562 9.86791 10.4725 10.2514 9.99967 10.2514ZM12.9953 10.2514C12.522 10.2514 12.1382 9.86785 12.1382 9.39499C12.1382 8.92141 12.522 8.53796 12.9953 8.53796C13.4681 8.53796 13.852 8.92141 13.852 9.39499C13.852 9.86791 13.4681 10.2514 12.9953 10.2514Z" fill="currentColor" />
  </symbol>
  <symbol id="lock" viewBox="0 0 14 16" fill="none">
    <path d="M11.6064 4.52402C11.6064 2.02446 9.58196 0 7.0824 0C4.85585 0 3.00157 1.60964 2.62929 3.72984C2.55484 4.14466 2.88102 4.52402 3.29939 4.52402C3.62202 4.52402 3.90921 4.29711 3.96239 3.98157C4.30275 2.01737 6.45486 0.670094 8.63532 1.73019C9.68478 2.24074 10.2981 3.35756 10.2485 4.52402V4.53111V7.05194H11.6064V4.53111C11.6064 4.52757 11.6064 4.52757 11.6064 4.52402Z" fill="currentColor" />
    <path d="M12.2557 5.84766L1.74359 5.84766C1.01677 5.84766 0.428223 6.43621 0.428223 7.15948L0.428223 14.0172C0.428223 14.744 1.01677 15.3326 1.74359 15.3326H12.2612C12.988 15.3326 13.5766 14.744 13.5766 14.0172L13.5711 7.15948C13.5675 6.43621 12.979 5.84766 12.2557 5.84766ZM7.70704 11.963H6.29241L6.58667 10.6405C6.27467 10.4881 6.06195 10.1725 6.06195 9.80025C6.06195 9.28615 6.47322 8.87137 6.98731 8.86428C6.99086 8.86428 6.9944 8.86428 7.00149 8.86428C7.51913 8.86428 7.9375 9.28261 7.9375 9.80025C7.9375 10.1725 7.71768 10.4952 7.40213 10.6441L7.70704 11.963Z" fill="currentColor" />
  </symbol>
  <symbol id="exit" viewBox="0 0 16 16" fill="none">
    <path d="M15.2869 7.15424C15.2557 7.07967 15.2111 7.01183 15.1543 6.95499L13.3214 5.12212C13.0825 4.88377 12.6962 4.88377 12.4573 5.12212C12.2183 5.36108 12.2183 5.74794 12.4573 5.98629L13.2475 6.77651H9.83356C9.4956 6.77651 9.22241 7.0503 9.22241 7.38766C9.22241 7.72502 9.4956 7.99881 9.83356 7.99881H13.2475L12.4572 8.78903C12.2183 9.02798 12.2183 9.41485 12.4572 9.6532C12.5764 9.77297 12.7329 9.83228 12.8893 9.83228C13.0458 9.83228 13.2023 9.773 13.3214 9.6532L15.1543 7.82033C15.2111 7.76409 15.2557 7.69626 15.2869 7.62108C15.3486 7.47203 15.3486 7.30335 15.2869 7.15424Z" fill="currentColor" />
    <path d="M11.0564 9.22221C10.7184 9.22221 10.4452 9.496 10.4452 9.83336V12.8891H8.00062V3.11063C8.00062 2.84111 7.82338 2.60276 7.56486 2.52515L5.4423 1.88834H10.4452V4.94413C10.4452 5.28149 10.7184 5.55528 11.0564 5.55528C11.3943 5.55528 11.6675 5.28149 11.6675 4.94413V1.27719C11.6675 0.939804 11.3943 0.666016 11.0564 0.666016H1.27789C1.25589 0.666016 1.23633 0.675183 1.21496 0.677618C1.18622 0.680683 1.15995 0.685554 1.13245 0.692286C1.06828 0.708787 1.01021 0.733854 0.955834 0.76806C0.942399 0.776625 0.925897 0.777227 0.913063 0.786996C0.908136 0.790691 0.906302 0.797424 0.901403 0.801091C0.834797 0.853631 0.779191 0.917802 0.738855 0.994207C0.730289 1.01071 0.728456 1.02844 0.721752 1.04554C0.702186 1.09198 0.680814 1.13722 0.67348 1.18855C0.670415 1.20689 0.675915 1.22399 0.675314 1.24172C0.674712 1.25396 0.666748 1.26496 0.666748 1.27716V13.5003C0.666748 13.7918 0.872698 14.0424 1.15812 14.0992L7.26967 15.3216C7.3094 15.3301 7.34974 15.3338 7.38945 15.3338C7.52939 15.3338 7.6669 15.2855 7.77691 15.1951C7.91809 15.0789 8.00059 14.906 8.00059 14.7226V14.1115H11.0564C11.3943 14.1115 11.6675 13.8377 11.6675 13.5003V9.83336C11.6675 9.496 11.3943 9.22221 11.0564 9.22221Z" fill="currentColor" />
  </symbol>
  <symbol id="hamburger" viewBox="0 0 14 12" fill="none">
    <rect width="14" height="2" rx="1" fill="currentColor" />
    <rect y="5" width="14" height="2" rx="1" fill="currentColor" />
    <rect y="10" width="14" height="2" rx="1" fill="currentColor" />
  </symbol>
  <symbol id="arrow-down" viewBox="0 0 20 20" fill="none">
    <path d="M4.62275 6.62275C4.96669 6.27882 5.52433 6.27882 5.86826 6.62275L10 10.7545L14.1289 6.62559C14.4742 6.28033 15.0341 6.281 15.3786 6.62709C15.722 6.97213 15.7212 7.53005 15.3768 7.8741L10 13.2455L4.62275 7.86826C4.27882 7.52433 4.27882 6.96669 4.62275 6.62275Z" fill="currentColor" />
  </symbol>
  <symbol id="person" viewBox="0 0 34 37" fill="none">
    <path d="M0 20.1841C0 10.8996 7.60759 3.36816 17 3.36816C26.3861 3.36816 34 10.8934 34 20.1841C34 29.4685 26.3924 37 17 37C7.60759 37 0 29.4685 0 20.1841Z" fill="#FFB900" />
    <path d="M29.1775 20.7852H4.60791C4.63956 27.4715 10.1269 32.8806 16.8927 32.8806C23.6585 32.8806 29.1459 27.4715 29.1775 20.7852Z" fill="white" />
    <path d="M0.424316 0C0.424316 9.25939 7.99394 16.7658 17.342 16.8096V0H0.424316Z" fill="#222B46" />
    <path d="M33.9177 16.8096C33.9114 7.55025 26.3481 0.043824 17 0V16.8096H33.9177Z" fill="#222B46" />
  </symbol>
  <symbol id="dm-deposit-withdraw" viewBox="0 0 90 90" fill="none">
    <path d="M28.5942 66.1358V83.6457L89.8433 8.1637" fill="#222B46" />
    <path d="M28.5943 66.1358L0.156738 49.1816L89.8433 8.1637L28.5943 66.1358Z" fill="#1E3787" />
    <path d="M71.2649 31.0876C71.2649 16.94 59.8386 5.48523 45.7195 5.3855C45.7053 5.3855 45.7053 5.3855 45.691 5.3855C45.6768 5.3855 45.6768 5.3855 45.6625 5.3855C31.5435 5.47098 20.1172 16.94 20.1172 31.0876C20.1172 45.2351 31.5435 56.6899 45.6625 56.7896C45.6768 56.7896 45.6768 56.7896 45.691 56.7896C45.7053 56.7896 45.7053 56.7896 45.7195 56.7896C59.8528 56.6899 71.2649 45.2209 71.2649 31.0876Z" fill="#FFB900" />
    <path d="M34.0652 67.7743L62.5027 87.464L89.8432 8.1637L34.0652 67.7743Z" fill="#2D5FB4" />
    <path d="M48.9221 39.3521H43.5811V43.1751H39.3982V39.3521H35.9912V35.9675H39.3982V34.2022H35.9912V30.8177H39.3982V19H48.641C51.3058 19 53.4423 19.6971 55.0389 21.0914C56.6356 22.4857 57.4339 24.3298 57.4339 26.6348C57.4339 28.9849 56.6806 30.8289 55.1626 32.167C53.6446 33.5051 51.542 34.191 48.8321 34.2247H43.5811V35.99H48.9333V39.3521H48.9221ZM43.5811 30.8177H48.5735C50.0802 30.8177 51.2271 30.4691 52.0255 29.772C52.8238 29.0748 53.2174 28.0291 53.2174 26.6461C53.2174 25.4092 52.8238 24.3972 52.048 23.6101C51.2721 22.823 50.1927 22.4182 48.8209 22.3845H43.5811V30.8177Z" fill="white" />
  </symbol>
  <symbol id="dm-send-receive" viewBox="0 0 90 90" fill="none">
    <path d="M0 35.2523L44.9328 65.0416L90 35.2523L44.9328 4.81433L0 35.2523Z" fill="#FFB900" />
    <path d="M74.9553 10.4561H15.0449V70.0181H74.9553V10.4561Z" fill="white" />
    <path d="M56.8679 37.1683C57.3554 33.8916 54.8339 32.1119 51.3879 30.9476L52.5142 26.49L49.7742 25.8081L48.6815 30.1326C47.9587 29.9497 47.2191 29.7833 46.4962 29.617L47.5889 25.2592L44.8489 24.5773L43.7226 29.0182C43.1343 28.8852 42.5459 28.7521 41.9744 28.619V28.6024L38.1922 27.671L37.4693 30.5651C37.4693 30.5651 39.5033 31.0308 39.4529 31.0474C40.5623 31.3135 40.7641 32.0454 40.7304 32.6275L37.6542 44.8194C37.5198 45.152 37.1668 45.651 36.3935 45.468C36.4271 45.5013 34.4099 44.9691 34.4099 44.9691L33.0483 48.0628L36.612 48.9443C37.2676 49.1106 37.9232 49.2769 38.562 49.4433L37.4357 53.9508L40.1757 54.6327L41.302 50.1751C42.0416 50.3747 42.7812 50.5577 43.4873 50.7406L42.361 55.165L45.101 55.8469L46.2273 51.356C50.9004 52.2376 54.4137 51.8717 55.8761 47.6968C57.0696 44.337 55.8257 42.391 53.3546 41.1269C55.1701 40.7443 56.5149 39.58 56.8679 37.1683ZM50.6146 45.8506C49.7742 49.2104 44.042 47.3974 42.1929 46.9317L43.7058 40.9772C45.5549 41.4263 51.5056 42.3411 50.6146 45.8506ZM51.4719 37.1184C50.6987 40.1788 45.9415 38.6153 44.395 38.2494L45.7566 32.8438C47.2863 33.2263 52.2788 33.9249 51.4719 37.1184Z" fill="#222B46" />
    <path d="M44.9328 64.9893L0 35.2V84.9571H90V35.2L44.9328 64.9893Z" fill="#2D5FB4" />
  </symbol>

  <symbol id="dm-buy-sell" viewBox="0 0 90 90" fill="none">
    <path d="M8.92236 21.138V50.844C8.92236 57.6118 14.4043 63.0928 21.1734 63.0928H77.749C84.5181 63.0928 90 57.6118 90 50.844V21.138C90 14.3701 84.5181 8.88916 77.749 8.88916H21.1885C14.4194 8.88916 8.92236 14.3701 8.92236 21.138Z" fill="#222B46" />
    <path d="M90 21.1379H8.92236V32.8417H90V21.1379Z" fill="#1E3787" />
    <path d="M0 38.5953V68.3013C0 75.0692 5.4819 80.5501 12.251 80.5501H68.8266C75.5957 80.5501 81.0776 75.0692 81.0776 68.3013V38.5953C81.0776 31.8274 75.5957 26.3465 68.8266 26.3465H12.251C5.4819 26.3313 0 31.8274 0 38.5953Z" fill="#2D5FB4" />
    <path d="M66.0856 72.5254C70.2255 72.5254 73.5815 69.17 73.5815 65.0308C73.5815 60.8916 70.2255 57.5361 66.0856 57.5361C61.9457 57.5361 58.5896 60.8916 58.5896 65.0308C58.5896 69.17 61.9457 72.5254 66.0856 72.5254Z" fill="#FFB900" />
    <path d="M55.8487 72.5254C59.9887 72.5254 63.3447 69.17 63.3447 65.0308C63.3447 60.8916 59.9887 57.5361 55.8487 57.5361C51.7088 57.5361 48.3528 60.8916 48.3528 65.0308C48.3528 69.17 51.7088 72.5254 55.8487 72.5254Z" fill="white" />
    <path d="M22.3367 36.2484H9.52539V49.0574H22.3367V36.2484Z" fill="#222B46" />
    <path d="M40.539 57.5361H9.52539V61.1245H40.539V57.5361Z" fill="#222B46" />
    <path d="M40.539 65.0308H9.52539V68.6191H40.539V65.0308Z" fill="#222B46" />
    <path d="M71.6233 49.0671V36.2581H68.0349V49.0671H71.6233Z" fill="#222B46" />
    <path d="M61.7764 49.0558V36.2468H58.188V49.0558H61.7764Z" fill="#222B46" />
    <path d="M51.9292 49.0596V36.2506H48.3408V49.0596H51.9292Z" fill="#222B46" />
  </symbol>

  <symbol id="dm-operations" viewBox="0 0 90 90" fill="none">
    <path d="M72.8734 8.01782H10.4736V89.1664H72.8734V8.01782Z" fill="#FFB900" />
    <path d="M80.9057 0H18.5059V81.1485H80.9057V0Z" fill="#1E3787" />
    <path d="M14.7173 4.547V85.6955H77.1171V20.0522L61.6119 4.547H14.7173Z" fill="white" />
    <path d="M37.9823 13.9895H22.4619V17.5816H37.9823V13.9895Z" fill="#FFB900" />
    <path d="M53.5027 21.4921H22.4619V25.0842H53.5027V21.4921Z" fill="#2D5FB4" />
    <path d="M47.1217 45.3789H22.4619V48.971H47.1217V45.3789Z" fill="#222B46" />
    <path d="M45.1211 60.0203H22.4619V63.6124H45.1211V60.0203Z" fill="#222B46" />
    <path d="M42.0594 52.6996H22.4619V56.2917H42.0594V52.6996Z" fill="#222B46" />
    <path d="M64.2034 45.3789H57.2769V48.971H64.2034V45.3789Z" fill="#222B46" />
    <path d="M63.6426 60.0203H57.2769V63.6124H63.6426V60.0203Z" fill="#222B46" />
    <path d="M65.9767 52.6996H57.2769V56.2917H65.9767V52.6996Z" fill="#222B46" />
    <path d="M32.7533 74.6768H22.4619V78.2689H32.7533V74.6768Z" fill="#222B46" />
    <path d="M77.1166 20.0522H61.6113V4.547L77.1166 20.0522Z" fill="#F0F4FA" />
  </symbol>
  <symbol id="dm-earn" viewBox="0 0 90 90" fill="none">
    <path d="M19.2346 64.163C19.2346 78.3848 30.7353 89.9284 44.9571 89.9857V64.163H19.2346Z" fill="#2D5FB4" />
    <path d="M70.7654 51.6741C70.7654 65.8959 59.2648 77.4395 45.043 77.4968V51.6741H70.7654Z" fill="#1E3787" />
    <path d="M70.6509 25.8514C70.6509 11.6296 59.1646 0.114598 44.9714 0.0143433C44.9571 0.0143433 44.9571 0.0143433 44.9428 0.0143433C44.9284 0.0143433 44.9284 0.0143433 44.9141 0.0143433C30.7209 0.100276 19.2346 11.6296 19.2346 25.8514C19.2346 40.0732 30.7209 51.5882 44.9141 51.6884C44.9284 51.6884 44.9284 51.6884 44.9428 51.6884C44.9571 51.6884 44.9571 51.6884 44.9714 51.6884C59.1646 51.6025 70.6509 40.0732 70.6509 25.8514Z" fill="#FFB900" />
    <path d="M54.9896 25.4943C54.8994 25.4041 54.732 25.2882 54.5001 25.1723C54.0235 24.9533 53.3151 24.7343 52.4263 24.5411C51.061 24.2706 49.2706 24.0645 47.2612 23.9872V26.499H43.2682V24.0001C42.3279 24.0388 41.4392 24.1032 40.6148 24.1805C39.2108 24.335 38.0129 24.554 37.1242 24.8116C36.5317 24.979 36.0937 25.1723 35.8232 25.3526C35.6687 25.4556 35.6043 25.5329 35.5656 25.5844C35.5527 25.6231 35.5527 25.6231 35.5527 25.636C35.5527 25.6488 35.5527 25.6488 35.5656 25.6875C35.5785 25.7004 35.6043 25.7519 35.6558 25.7905C35.7459 25.8807 35.9134 25.9966 36.1452 26.1125C36.6218 26.3315 37.3303 26.5505 38.219 26.7437C40.0094 27.1172 42.5211 27.3362 45.3162 27.3362C47.0165 27.3362 48.6266 27.246 50.0305 27.1044C51.4345 26.9627 52.6324 26.7308 53.5212 26.4732C54.1137 26.3058 54.5516 26.1125 54.8221 25.9322C54.9767 25.8292 55.0411 25.7519 55.0797 25.7004C55.0926 25.6617 55.0926 25.6617 55.0926 25.6488C55.0926 25.636 55.0926 25.636 55.0797 25.5973C55.054 25.5844 55.0411 25.5458 54.9896 25.4943Z" fill="white" />
    <path d="M55.6208 13.0001H34.7542L28.198 26.1125L45.1875 42.6126L61.6876 25.8678L55.6208 13.0001ZM55.492 26.3186C55.3117 26.4861 55.0927 26.6406 54.7964 26.7694C54.2426 27.0399 53.4826 27.2589 52.5295 27.4392C51.0997 27.7226 49.2707 27.9287 47.2098 28.0188V36.2882H43.2168V28.006C42.2507 27.9673 41.3362 27.9029 40.499 27.7999C39.0692 27.6453 37.8327 27.4263 36.8795 27.143C36.2484 26.9626 35.746 26.7565 35.3725 26.4989C35.1664 26.3701 34.999 26.1898 34.883 25.9966C34.8315 25.8807 34.7929 25.7647 34.7929 25.6231C34.7929 25.4942 34.8315 25.3654 34.883 25.2495C34.9346 25.1336 35.0118 25.0434 35.102 24.9404C35.2823 24.7729 35.5013 24.6184 35.7976 24.4896C36.3514 24.2191 37.1114 24.0001 38.0645 23.8198C39.4685 23.5364 41.2461 23.3303 43.2168 23.2659V20.7284H37.2531V16.9802H53.2894V20.7284H47.2098V23.2659C48.2273 23.3045 49.2063 23.3689 50.095 23.472C51.5248 23.6266 52.7613 23.8455 53.7145 24.1289C54.3456 24.3092 54.848 24.5153 55.2215 24.7729C55.4276 24.9017 55.5951 25.0821 55.711 25.2753C55.7625 25.3912 55.8011 25.5071 55.8011 25.6488C55.8011 25.7905 55.7625 25.9064 55.711 26.0224C55.6723 26.1383 55.5822 26.2413 55.492 26.3186Z" fill="white" />
  </symbol>
  <symbol id="dm-lending" viewBox="0 0 90 90" fill="none">
    <path d="M67.0843 35.4758C67.0843 21.2539 55.598 9.73899 41.4048 9.63873C41.3904 9.63873 41.3904 9.63873 41.3761 9.63873C41.3618 9.63873 41.3618 9.63873 41.3475 9.63873C27.1543 9.72467 15.668 21.2539 15.668 35.4758C15.668 49.6976 27.1543 61.2126 41.3475 61.3128C41.3618 61.3128 41.3618 61.3128 41.3761 61.3128C41.3904 61.3128 41.3904 61.3128 41.4048 61.3128C55.6123 61.2126 67.0843 49.6833 67.0843 35.4758Z" fill="#FFB900" />
    <path d="M89.5128 64.9649H45.7445V64.922L8.73625 49.2536C5.75726 47.9933 2.29131 49.1963 0.75885 52.0464C-0.873868 55.0684 0.214611 58.8208 3.1936 60.5108L31.2792 76.3653C35.805 78.9719 40.9323 80.3469 46.1599 80.3469H89.9425V69.0038C89.9282 67.6289 89.7706 66.2826 89.5128 64.9649Z" fill="#1E3787" />
    <path d="M67.6718 46.9048C61.4847 46.9048 55.8991 49.4255 51.8746 53.4929H36.1489C32.9837 53.4929 30.4058 56.0566 30.4058 59.2361C30.4058 62.4156 32.9694 64.9793 36.1489 64.9793H45.7734H69.0324H89.5417C87.5652 54.6817 78.5423 46.9048 67.6718 46.9048Z" fill="#2D5FB4" />
    <path opacity="0.6" d="M41.3906 17.2151V30.7638L29.9902 36.0057L41.3906 17.2151Z" fill="white" />
    <path opacity="0.8" d="M41.3906 42.6369V30.7639L29.9902 36.0057L41.3906 42.6369Z" fill="white" />
    <path opacity="0.6" d="M41.3906 44.3269V53.7365L29.9902 37.7101L41.3906 44.3269Z" fill="white" />
    <path opacity="0.8" d="M41.3906 17.2151V30.7638L52.8053 36.0057L41.3906 17.2151Z" fill="white" />
    <path d="M41.3906 42.6369V30.7639L52.8053 36.0057L41.3906 42.6369Z" fill="white" />
    <path opacity="0.8" d="M41.3906 44.3269V53.7365L52.8053 37.7101L41.3906 44.3269Z" fill="white" />
  </symbol>
  <symbol id="dm-ensure" viewBox="0 0 90 90" fill="none">
    <path d="M90.0001 0.356628H70.321V90H90.0001V0.356628Z" fill="#2D5FB4" />
    <path d="M70.3353 22.1683H50.6562V90H70.3353V22.1683Z" fill="#1E3787" />
    <path d="M50.7278 44.7932H31.0488V89.8716H50.7278V44.7932Z" fill="#222B46" />
    <path d="M27.645 11.0557C27.5735 26.291 15.2455 38.6306 0 38.7875V49.6149C21.2236 49.4437 38.3712 32.254 38.3712 11.0557H27.645Z" fill="#FFBC00" />
    <path d="M22.3391 11.0556L33.4086 0L44.4923 11.0556H22.3391Z" fill="#FFBC00" />
  </symbol>
  <symbol id="dm-consulting" viewBox="0 0 90 90" fill="none">
    <path d="M88.901 83.7567L57.8911 38.0483L49.4615 43.7672L80.4714 89.4756L88.901 83.7567Z" fill="#222B46" />
    <path d="M76.7214 88.6608L62.2319 67.3041C61.3771 66.0361 61.7048 64.3122 62.9728 63.4431L71.165 57.8867C72.433 57.0318 74.1569 57.3595 75.026 58.6275L89.5155 79.9842C90.3703 81.2522 90.0426 82.9761 88.7746 83.8452L80.5824 89.4016C79.3144 90.2565 77.5905 89.9288 76.7214 88.6608Z" fill="#222B46" />
    <path d="M83.2893 87.5637L65.6797 61.6052L71.1649 57.8867C72.4329 57.0318 74.1568 57.3595 75.0259 58.6275L89.5154 79.9842C90.3702 81.2522 90.0425 82.9761 88.7745 83.8452L83.2893 87.5637Z" fill="#2D5FB4" />
    <path d="M71.9292 30.5586L58.1479 10.2451L22.4962 34.4323L36.2774 54.7458L71.9292 30.5586Z" fill="#1E3787" />
    <path d="M67.6774 21.7717L61.4946 12.6583L23.8975 38.1653L30.0803 47.2786L67.6774 21.7717Z" fill="#2D5FB4" />
    <path d="M83.6742 23.0236L69.6834 2.39354C68.2729 0.327687 65.4662 -0.21371 63.3861 1.18252L59.3826 3.8895C57.3168 5.29998 56.7754 8.1067 58.1716 10.1868L72.1624 30.8168C73.5729 32.8827 76.3796 33.4241 78.4597 32.0279L82.4632 29.3209C84.5433 27.9104 85.0847 25.0894 83.6742 23.0236Z" fill="#222B46" />
    <path d="M80.6679 30.5461L82.5058 29.2924C84.5574 27.8961 85.0988 25.1037 83.7026 23.0521L69.669 2.36503C68.2728 0.313427 65.4803 -0.227969 63.4287 1.16826L61.5908 2.42202L80.6679 30.5461Z" fill="#2D5FB4" />
    <path d="M37.0998 54.9517L22.7956 33.8658C21.4706 31.9281 18.8348 31.4152 16.883 32.7402L12.5945 35.6467C10.6569 36.9717 10.144 39.6074 11.469 41.5593L25.7732 62.6453C27.0982 64.5829 29.734 65.0958 31.6859 63.7708L35.9743 60.8643C37.9119 59.5393 38.4106 56.9036 37.0998 54.9517Z" fill="#222B46" />
    <path d="M34.0937 62.1323L35.9316 60.8786C37.9832 59.4823 38.5246 56.6899 37.1284 54.6382L23.0948 33.9512C21.6986 31.8996 18.9061 31.3582 16.8545 32.7544L15.0166 34.0082L34.0937 62.1323Z" fill="#2D5FB4" />
    <path d="M36.2591 78.6734H8.54815C5.57047 78.6734 3.14844 81.0954 3.14844 84.0731H41.6446C41.6588 81.0954 39.2368 78.6734 36.2591 78.6734Z" fill="#2D5FB4" />
    <path d="M44.7364 83.9164H0.0854492V89.6153H44.7364V83.9164Z" fill="#222B46" />
    <path d="M8.97562 71.8917L0.270542 73.7581L0.185059 69.313L8.97562 71.8917Z" fill="#FFBC00" />
    <path d="M12.5377 66.9195L7.72217 59.4254L11.8539 57.7727L12.5377 66.9195Z" fill="#FFBC00" />
    <path d="M10.0442 68.9995L1.78076 65.6799L4.18855 61.9471L10.0442 68.9995Z" fill="#FFBC00" />
  </symbol>
  <symbol id="dm-acquire" viewBox="0 0 90 90" fill="none">
    <path d="M75.4394 61.6194H13.4922C10.7283 61.6194 8.49146 59.3826 8.49146 56.6186V16.6835C8.49146 13.9196 10.7283 11.6827 13.4922 11.6827H75.4536C78.2176 11.6827 80.4544 13.9196 80.4544 16.6835V56.6329C80.4402 59.3826 78.2034 61.6194 75.4394 61.6194Z" fill="#1E3787" />
    <path d="M73.3733 57.0888H15.5579C14.4894 57.0888 13.6345 56.2197 13.6345 55.1654V18.151C13.6345 17.0824 14.5036 16.2276 15.5579 16.2276H73.3733C74.4419 16.2276 75.2967 17.0967 75.2967 18.151V55.1654C75.2967 56.2339 74.4276 57.0888 73.3733 57.0888Z" fill="#222B46" />
    <path d="M87.2361 71.0796H2.76404C1.25383 71.0796 0.0285645 72.3049 0.0285645 73.8151V75.5817C0.0285645 77.0919 1.25383 78.3172 2.76404 78.3172H87.2361C88.7463 78.3172 89.9716 77.0919 89.9716 75.5817V73.8151C89.9716 72.3049 88.7463 71.0796 87.2361 71.0796Z" fill="#1E3787" />
    <path d="M0.897705 71.8917L12.7229 61.6194H76.28L88.7749 71.6922L0.897705 71.8917Z" fill="#2D5FB4" />
    <path d="M38.4393 48.1699C35.6326 45.3632 35.6326 40.8041 38.4393 37.9831C41.246 35.1764 45.8051 35.1764 48.6261 37.9831C51.4328 40.7899 51.4328 45.349 48.6261 48.1699C45.8051 50.9909 41.246 50.9909 38.4393 48.1699Z" fill="#1E3787" />
    <path d="M52.7576 48.1699C49.9509 45.3632 49.9509 40.8041 52.7576 37.9831C55.5643 35.1764 60.1235 35.1764 62.9444 37.9831C65.7511 40.7899 65.7511 45.349 62.9444 48.1699C60.1377 50.9909 55.5786 50.9909 52.7576 48.1699Z" fill="#1E3787" />
    <path d="M50.7487 29.1214H36.3447V42.9697H50.7487V29.1214Z" fill="#1E3787" />
    <path d="M65.0532 38.5958H50.6492V42.9697H65.0532V38.5958Z" fill="#1E3787" />
    <path d="M38.4393 34.5496C35.6326 31.7429 35.6326 27.1837 38.4393 24.3628C41.246 21.5561 45.8051 21.5561 48.6261 24.3628C51.4328 27.1695 51.4328 31.7286 48.6261 34.5496C45.8051 37.3705 41.246 37.3705 38.4393 34.5496Z" fill="#FFB900" />
    <path d="M47.358 26.0012L39.9922 33.3671C42.0295 35.3759 45.3064 35.3759 47.3295 33.3528C49.3669 31.3155 49.3669 28.0386 47.358 26.0012Z" fill="white" />
    <path d="M52.7576 43.5681C49.9509 40.7614 49.9509 36.2023 52.7576 33.3813C55.5643 30.5746 60.1235 30.5746 62.9444 33.3813C65.7511 36.1881 65.7511 40.7472 62.9444 43.5681C60.1377 46.3748 55.5786 46.3748 52.7576 43.5681Z" fill="#FFB900" />
    <path d="M61.6766 35.0055L54.3108 42.3713C56.3482 44.3802 59.625 44.3802 61.6481 42.3571C63.6855 40.3197 63.6997 37.0429 61.6766 35.0055Z" fill="white" />
  </symbol>
  <symbol id="dm-companies" viewBox="0 0 90 90" fill="none">
    <path d="M89.6154 26.0583H0.313477V79.2861H89.6154V26.0583Z" fill="#1E3787" />
    <path d="M89.6154 26.0583H0.313477V79.2861H89.6154V26.0583Z" fill="#1E3787" />
    <path d="M35.2478 26.0583H0.313477V79.2861H35.2478V26.0583Z" fill="#222B46" />
    <path d="M54.5956 26.0868H0.313477V8.49139L54.5956 26.0868Z" fill="#222B46" />
    <path d="M89.5013 26.0868H35.2192V8.49139L89.5013 26.0868Z" fill="#1E3787" />
    <path d="M23.0949 37.5558H13.478V47.1728H23.0949V37.5558Z" fill="#FFB900" />
    <path d="M23.0949 57.2455H13.478V66.8624H23.0949V57.2455Z" fill="#FFB900" />
    <path d="M55.9348 37.5558H46.3179V47.1728H55.9348V37.5558Z" fill="#2D5FB4" />
    <path d="M55.9348 57.2455H46.3179V66.8624H55.9348V57.2455Z" fill="#FFB900" />
    <path d="M76.4367 37.5558H66.8198V47.1728H76.4367V37.5558Z" fill="#FFB900" />
    <path d="M76.4367 57.2455H66.8198V66.8624H76.4367V57.2455Z" fill="#2D5FB4" />
  </symbol>
  <symbol id="currency-btc" viewBox="0 0 40 40" fill="none">
    <path d="M20 40C31.0457 40 40 31.0457 40 20C40 8.95431 31.0457 0 20 0C8.95431 0 0 8.95431 0 20C0 31.0457 8.95431 40 20 40Z" fill="#EF8E1A" />
    <path d="M29.2812 17.386C29.6951 14.5835 27.5791 13.0791 24.6824 12.0733L25.6209 8.27788L23.3258 7.70191L22.4128 11.3984C21.8113 11.248 21.1927 11.1062 20.5742 10.9643L21.4956 7.24199L19.2047 6.66602L18.2662 10.4614C17.7671 10.3454 17.2765 10.2336 16.8029 10.1133L16.8072 10.1004L13.646 9.30517L13.036 11.7724C13.036 11.7724 14.7381 12.1635 14.6997 12.1893C15.6298 12.4214 15.7961 13.0404 15.7663 13.5347L13.1896 23.9323C13.0744 24.216 12.7885 24.6415 12.1401 24.4825C12.1614 24.5169 10.4721 24.0612 10.4721 24.0612L9.33301 26.709L12.3193 27.4569C12.8739 27.5987 13.4199 27.7449 13.9532 27.8824L13.0061 31.7208L15.297 32.2968L16.2355 28.4971C16.8627 28.669 17.4684 28.8281 18.0614 28.9742L17.1229 32.7567L19.418 33.3327L20.3651 29.4986C24.2771 30.2422 27.2165 29.9456 28.4536 26.3823C29.4519 23.5111 28.4067 21.8562 26.3462 20.7773C27.8478 20.4292 28.9783 19.4363 29.2812 17.386ZM24.0382 24.7877C23.33 27.6589 18.535 26.1072 16.9778 25.7161L18.2363 20.6312C19.7935 21.0223 24.7763 21.796 24.0382 24.7877ZM24.7464 17.343C24.0979 19.9521 20.1091 18.6282 18.8123 18.3015L19.9556 13.6894C21.2525 14.0161 25.4204 14.6222 24.7464 17.343Z" fill="white" />
  </symbol>
  <symbol id="currency-eth" viewBox="0 0 40 40" fill="none">
    <path d="M20 40C31.0457 40 40 31.0457 40 20C40 8.95431 31.0457 0 20 0C8.95431 0 0 8.95431 0 20C0 31.0457 8.95431 40 20 40Z" fill="#687DE3" />
    <path d="M19.9998 5.33203L11.2754 20.2726L19.9998 16.1777V5.33203Z" fill="white" />
    <path d="M19.9998 16.1777L11.2754 20.2726L19.9998 25.5933V16.1777Z" fill="#C3CCF3" />
    <path d="M20 5.33203V16.1777L28.7157 20.2726L20 5.33203Z" fill="#C3CCF3" />
    <path d="M20 16.1777V25.5933L28.7157 20.2726L20 16.1777Z" fill="#8697E8" />
    <path d="M11.2754 21.9805L19.9998 34.6649V27.2968L11.2754 21.9805Z" fill="white" />
    <path d="M28.7244 21.9805L20 27.2968V34.6606L28.7244 21.9805Z" fill="#C3CCF2" />
  </symbol>
  <symbol id="currency-usd" viewBox="0 0 40 40" fill="none">
    <path d="M20 40C31.0457 40 40 31.0457 40 20C40 8.95431 31.0457 0 20 0C8.95431 0 0 8.95431 0 20C0 31.0457 8.95431 40 20 40Z" fill="#FFB900" />
    <path d="M22.1935 24.8254C22.1935 24.0782 21.9916 23.4858 21.5876 23.0484C21.1925 22.6018 20.5164 22.1917 19.5593 21.8181C18.6022 21.4444 17.7768 21.0754 17.0831 20.7108C16.3894 20.3372 15.7923 19.9134 15.2918 19.4395C14.8001 18.9565 14.4137 18.3915 14.1327 17.7445C13.8605 17.0974 13.7244 16.3274 13.7244 15.4343C13.7244 13.8941 14.1986 12.632 15.1469 11.6477C16.0952 10.6635 17.3553 10.0894 18.9271 9.92534V7H21.0344V9.96635C22.5887 10.1942 23.8048 10.8686 24.6829 11.9895C25.561 13.1013 26 14.5457 26 16.3228H22.1935C22.1935 15.2292 21.974 14.4136 21.535 13.8759C21.1047 13.3291 20.5252 13.0557 19.7964 13.0557C19.0763 13.0557 18.5187 13.2699 18.1236 13.6982C17.7285 14.1174 17.5309 14.7007 17.5309 15.4479C17.5309 16.1406 17.7241 16.6965 18.1104 17.1157C18.4968 17.5349 19.2124 17.9632 20.2573 18.4006C21.311 18.8381 22.176 19.2527 22.8521 19.6446C23.5282 20.0273 24.099 20.4648 24.5643 20.9569C25.0297 21.4399 25.3853 21.9958 25.6312 22.6246C25.8771 23.2443 26 23.9688 26 24.7981C26 26.3474 25.5346 27.605 24.6038 28.571C23.6731 29.537 22.3911 30.1066 20.7579 30.2797V33H18.6636V30.2934C16.8636 30.0929 15.4674 29.4322 14.4752 28.3113C13.4917 27.1812 13 25.6821 13 23.8139H16.8065C16.8065 24.8984 17.0523 25.7322 17.5441 26.3155C18.0446 26.8896 18.7602 27.1767 19.691 27.1767C20.4637 27.1767 21.074 26.9671 21.5218 26.5478C21.9696 26.1195 22.1935 25.5454 22.1935 24.8254Z" fill="white" />
  </symbol>
  <symbol id="currency-rub" viewBox="0 0 40 40" fill="none">
    <path d="M20 40C31.0457 40 40 31.0457 40 20C40 8.95431 31.0457 0 20 0C8.95431 0 0 8.95431 0 20C0 31.0457 8.95431 40 20 40Z" fill="#222B46" />
    <path d="M23.1315 27.3478H18.4715V30.7398H14.8235V27.3478H11.8555V24.3398H14.8235V22.7758H11.8555V19.7678H14.8235V9.25977H22.8915C25.2195 9.25977 27.0755 9.87977 28.4675 11.1118C29.8595 12.3478 30.5515 13.9878 30.5515 16.0358C30.5515 18.1238 29.8915 19.7598 28.5675 20.9478C27.2435 22.1358 25.4035 22.7438 23.0515 22.7718H18.4715V24.3358H23.1355V27.3478H23.1315ZM18.4715 19.7638H22.8315C24.1435 19.7638 25.1475 19.4558 25.8435 18.8358C26.5395 18.2158 26.8875 17.2918 26.8875 16.0638C26.8875 14.9638 26.5475 14.0638 25.8675 13.3638C25.1875 12.6638 24.2475 12.2998 23.0515 12.2718H18.4715V19.7638Z" fill="#F0F4FA" />
  </symbol>
  <symbol id="currency-rubb" viewBox="0 0 40 40" fill="none">
    <path d="M20 40C31.0457 40 40 31.0457 40 20C40 8.95431 31.0457 0 20 0C8.95431 0 0 8.95431 0 20C0 31.0457 8.95431 40 20 40Z" fill="#1E3787" />
    <path d="M24.1747 10H14V19.9966H24.1747V10Z" fill="white" />
    <path fill-rule="evenodd" clip-rule="evenodd" d="M24.1505 19.9966C21.3421 19.9966 19.0632 17.7576 19.0632 14.9983C19.0632 12.239 21.3421 10 24.1505 10C26.959 10 29.2379 12.239 29.2379 14.9983C29.2379 17.7576 26.959 19.9966 24.1505 19.9966ZM24.1505 20.0034H14V30.0001H24.1505H24.1747V30C26.972 29.9872 29.2379 27.7532 29.2379 25.0018C29.2379 22.2503 26.972 20.0163 24.1747 20.0035V20.0034H24.1505Z" fill="#FFB900" />
    <path d="M14 29.9905V20.0039C16.805 20.0039 19.0805 22.2396 19.0805 24.9955V25.0022C19.0805 27.7582 16.805 29.9905 14 29.9905Z" fill="white" />
  </symbol>
  <symbol id="currency-usdt" viewBox="0 0 40 40" fill="none">
    <path d="M20 40C31.0457 40 40 31.0457 40 20C40 8.95431 31.0457 0 20 0C8.95431 0 0 8.95431 0 20C0 31.0457 8.95431 40 20 40Z" fill="#28A07C" />
    <path d="M32.1763 19.8689C32.0402 19.6342 31.8405 19.4356 31.6045 19.2822C31.1688 18.9843 30.5789 18.7496 29.8437 18.5329C28.7363 18.1989 27.2932 17.9461 25.614 17.7656C24.5702 17.6482 23.4175 17.567 22.2376 17.5309V14.5789H29.3535V10.2188H10.5925V14.5789H17.5723V17.5309C15.2578 17.6121 13.1884 17.8468 11.5455 18.1808C10.4382 18.3975 9.54869 18.6503 8.89519 18.9662C8.55936 19.1197 8.30522 19.3002 8.08738 19.4988C7.98754 19.6162 7.8877 19.7155 7.83324 19.8509C7.7697 19.9863 7.7334 20.1217 7.7334 20.2842C7.7334 20.4377 7.7697 20.5821 7.83324 20.7175C7.96939 20.9522 8.16907 21.1508 8.40506 21.3043C8.84073 21.6022 9.4307 21.8369 10.1659 22.0536C11.2732 22.3876 12.7164 22.6403 14.3955 22.8209C15.3849 22.9382 16.4468 23.0195 17.5814 23.0556V32.6877H22.2467V23.0736C24.661 22.9743 26.794 22.7396 28.4731 22.4056C29.5805 22.189 30.47 21.9362 31.1235 21.6202C31.4593 21.4668 31.7134 21.2862 31.9313 21.0876C32.0311 20.9883 32.1309 20.871 32.1854 20.7356C32.2489 20.6002 32.2852 20.4647 32.2852 20.3023C32.2852 20.1398 32.2308 20.0044 32.1763 19.8689ZM31.423 20.3564C31.3867 20.4196 31.305 20.5099 31.1235 20.6272C30.8058 20.8439 30.2975 21.0605 29.5986 21.2591C28.5548 21.557 27.148 21.8098 25.5051 21.9904C23.8623 22.1709 21.9835 22.2612 19.9866 22.2612C16.7282 22.2612 13.7783 22.0084 11.6817 21.5751C10.6379 21.3584 9.80283 21.1057 9.24917 20.8439C8.97687 20.7085 8.77719 20.5731 8.67735 20.4738C8.61382 20.4377 8.59566 20.3745 8.57751 20.3564C8.55936 20.3203 8.55936 20.3203 8.55936 20.2932C8.55936 20.2752 8.55936 20.2752 8.57751 20.23C8.61382 20.1668 8.6955 20.0766 8.87703 19.9592C9.19471 19.7426 9.70299 19.5259 10.4019 19.3273C11.4457 19.0294 12.8525 18.7766 14.4954 18.5961C15.4666 18.4968 16.4922 18.4155 17.5995 18.3794V21.2862H22.2648V18.3614C24.6156 18.4607 26.7123 18.6954 28.3098 19.0113C29.3535 19.228 30.1886 19.4808 30.7422 19.7426C31.0145 19.878 31.2142 20.0134 31.3141 20.1127C31.3776 20.1668 31.3958 20.212 31.4139 20.23C31.4321 20.2661 31.4321 20.2661 31.4321 20.2932C31.4411 20.3203 31.4411 20.3203 31.423 20.3564Z" fill="white" />
  </symbol>
  <symbol id="success-icon" viewBox="0 0 20 20" fill="none">
    <g>
      <path d="M17.0733 17.0733C13.1708 20.9757 6.83586 20.9757 2.93342 17.0733C-0.969018 13.1708 -0.969018 6.83586 2.93342 2.93342C6.83586 -0.969018 13.1708 -0.969018 17.0733 2.93342C20.9757 6.83586 20.9757 13.1643 17.0733 17.0733Z" fill="#40A55C" />
      <path d="M5.52222 10.1912L9.26205 13.9375L15.7791 7.42047L14.4263 6.06763L9.26205 11.2254L6.87506 8.83836L5.52222 10.1912Z" fill="white" />
    </g>
  </symbol>
  <symbol id="copy-icon" viewBox="0 0 20 20" fill="none">
    <path d="M8.2161 15.6248C6.45877 15.6248 5.02844 14.1945 5.02844 12.4372V4.74951H3.71594C2.57813 4.74951 1.65332 5.67418 1.65332 6.81199V16.9373C1.65332 18.0752 2.57813 19 3.71594 19H13.0912C14.229 19 15.1538 18.0752 15.1538 16.9373V15.6248H8.2161Z" fill="currentColor" />
    <path d="M18.1539 3.06262C18.1539 1.9233 17.2306 1 16.0915 1H8.21618C7.07686 1 6.15356 1.9233 6.15356 3.06262V12.4379C6.15356 13.5772 7.07686 14.5005 8.21618 14.5005H16.0915C17.2306 14.5005 18.1539 13.5772 18.1539 12.4379V3.06262Z" fill="currentColor" />
  </symbol>
  <symbol id="list-icon" viewBox="0 0 25 24" fill="none">
    <g>
      <path fill-rule="evenodd" clip-rule="evenodd" d="M4.5 2C3.39543 2 2.5 2.89543 2.5 4V20C2.5 21.1046 3.39543 22 4.5 22H20.5C21.6046 22 22.5 21.1046 22.5 20V4C22.5 2.89543 21.6046 2 20.5 2H4.5ZM6.5 7C6.5 6.44772 6.94772 6 7.5 6C8.05228 6 8.5 6.44772 8.5 7C8.5 7.55228 8.05228 8 7.5 8C6.94772 8 6.5 7.55228 6.5 7ZM10.5 7C10.5 6.44772 10.9477 6 11.5 6H17.5C18.0523 6 18.5 6.44772 18.5 7C18.5 7.55228 18.0523 8 17.5 8H11.5C10.9477 8 10.5 7.55228 10.5 7ZM7.5 16C6.94772 16 6.5 16.4477 6.5 17C6.5 17.5523 6.94772 18 7.5 18C8.05228 18 8.5 17.5523 8.5 17C8.5 16.4477 8.05228 16 7.5 16ZM6.5 12C6.5 11.4477 6.94772 11 7.5 11C8.05228 11 8.5 11.4477 8.5 12C8.5 12.5523 8.05228 13 7.5 13C6.94772 13 6.5 12.5523 6.5 12ZM11.5 16C10.9477 16 10.5 16.4477 10.5 17C10.5 17.5523 10.9477 18 11.5 18H17.5C18.0523 18 18.5 17.5523 18.5 17C18.5 16.4477 18.0523 16 17.5 16H11.5ZM10.5 12C10.5 11.4477 10.9477 11 11.5 11H17.5C18.0523 11 18.5 11.4477 18.5 12C18.5 12.5523 18.0523 13 17.5 13H11.5C10.9477 13 10.5 12.5523 10.5 12Z" fill="currentColor" />
    </g>
  </symbol>
  <symbol id="add-icon" viewBox="0 0 25 24" fill="none">
    <path fill-rule="evenodd" clip-rule="evenodd" d="M12.5 23C18.5751 23 23.5 18.0751 23.5 12C23.5 5.92487 18.5751 1 12.5 1C6.42487 1 1.5 5.92487 1.5 12C1.5 18.0751 6.42487 23 12.5 23ZM12.5 7C13.0523 7 13.5 7.44772 13.5 8V10C13.5 10.5523 13.9477 11 14.5 11H16.5C17.0523 11 17.5 11.4477 17.5 12C17.5 12.5523 17.0523 13 16.5 13H14.5C13.9477 13 13.5 13.4477 13.5 14V16C13.5 16.5523 13.0523 17 12.5 17C11.9477 17 11.5 16.5523 11.5 16V14C11.5 13.4477 11.0523 13 10.5 13H8.5C7.94772 13 7.5 12.5523 7.5 12C7.5 11.4477 7.94772 11 8.5 11H10.5C11.0523 11 11.5 10.5523 11.5 10V8C11.5 7.44772 11.9477 7 12.5 7Z" fill="currentColor" />
  </symbol>
  <symbol id="withdrawal-icon" viewBox="0 0 23 22" fill="none">
    <path fill-rule="evenodd" clip-rule="evenodd" d="M11.1665 22C17.2416 22 22.1665 17.0751 22.1665 11C22.1665 4.92487 17.2416 0 11.1665 0C5.09137 0 0.166504 4.92487 0.166504 11C0.166504 17.0751 5.09137 22 11.1665 22ZM8.16652 6C8.16652 5.44772 8.61424 5 9.16652 5H13.1665C13.7188 5 14.1665 5.44772 14.1665 6C14.1665 6.55228 13.7188 7 13.1665 7H9.16652C8.61424 7 8.16652 6.55228 8.16652 6ZM11.1662 9C11.7185 9 12.1662 9.44772 12.1662 10V13.5309L13.1972 12.5003C13.5877 12.1098 14.2209 12.1098 14.6114 12.5003C15.0019 12.8908 15.0019 13.524 14.6114 13.9145L11.9141 16.6108C11.9001 16.6267 11.8855 16.6423 11.8703 16.6574C11.5962 16.9316 11.2026 17.0133 10.8572 16.9026C10.7097 16.8557 10.5709 16.7737 10.454 16.6567C10.443 16.6458 10.4324 16.6347 10.4221 16.6235L7.71332 13.9146C7.32279 13.5241 7.32279 12.891 7.71332 12.5004C8.10384 12.1099 8.73701 12.1099 9.12753 12.5004L10.1662 13.5391L10.1662 10C10.1662 9.44772 10.6139 9 11.1662 9Z" fill="#FFB900" />
  </symbol>
  <symbol id="calendar-icon" viewBox="0 0 12 12" fill="none">
    <g>
      <path d="M9.89175 1.03986H8.68562V0.554367C8.68562 0.249196 8.43317 -0.000488281 8.12462 -0.000488281C7.81608 -0.000488281 7.56363 0.249196 7.56363 0.554367V1.03986H4.45011V0.554367C4.45011 0.249196 4.19766 -0.000488281 3.88912 -0.000488281C3.58057 -0.000488281 3.32812 0.249196 3.32812 0.554367V1.03986H2.12199C1.50489 1.03986 1 1.53923 1 2.14957V9.8898C1 10.5001 1.50489 10.9995 2.12199 10.9995H9.87773C10.4948 10.9995 10.9997 10.5001 10.9997 9.8898V2.14957C11.0137 1.53923 10.5088 1.03986 9.89175 1.03986ZM9.87773 9.87593H2.12199V5.21515H9.87773V9.87593Z" fill="currentColor" />
    </g>
  </symbol>
  <symbol id="arrow-down-control" viewBox="0 0 12 12" fill="none">
    <path d="M1.16058 3.30071C1.47012 2.99117 1.97199 2.99117 2.28153 3.30071L6.0001 7.01928L9.7161 3.30327C10.0268 2.99253 10.5308 2.99314 10.8408 3.30462C11.1499 3.61515 11.1491 4.11728 10.8392 4.42692L6.0001 9.26119L1.16058 4.42167C0.851033 4.11213 0.851033 3.61026 1.16058 3.30071Z" fill="currentColor" />
  </symbol>
  <symbol id="close-control" viewBox="0 0 12 12" fill="none">
    <rect x="0.5" y="1.63281" width="1.6" height="14" rx="0.8" transform="rotate(-45 0.5 1.63281)" fill="currentColor" />
    <rect x="10.4004" y="0.5" width="1.6" height="14" rx="0.8" transform="rotate(45 10.4004 0.5)" fill="currentColor" />
  </symbol>
  <symbol id="checkbox-checked" viewBox="0 0 20 20" fill="none">
    <rect x="0.5" y="0.5" width="19" height="19" rx="5.5" style="fill: var(--checkbox-checked-rect-fill, #222b46); stroke: var(--checkbox-checked-rect-stroke, unset)" />
    <path d="M4.88217 8.86928C5.1806 8.57084 5.66447 8.57084 5.9629 8.86928L9.54805 12.4544L15.5182 6.48428C15.8178 6.18467 16.3037 6.18525 16.6026 6.48558C16.9006 6.78497 16.8999 7.26905 16.6011 7.56762L9.54805 14.6159L4.88217 9.95002C4.58373 9.65158 4.58373 9.16772 4.88217 8.86928Z" style="fill: var(--checkbox-checked-check-mark, #ffffff)" />
  </symbol>
  <symbol id="checkbox-unchecked" viewBox="0 0 20 20" fill="none">
    <rect x="0.5" y="0.5" width="19" height="19" rx="5.5" style="fill: var(--checkbox-checked-rect-fill, none); stroke: var(--checkbox-checked-rect-stroke, #222b46)" />
  </symbol>
  <symbol id="checkbox-checked-disabled" viewBox="0 0 20 20" fill="none">
    <rect width="20" height="20" rx="6" fill="#D2DCEF" />
    <path d="M4.88217 8.86928C5.1806 8.57084 5.66447 8.57084 5.9629 8.86928L9.54805 12.4544L15.5182 6.48428C15.8178 6.18467 16.3037 6.18525 16.6026 6.48558C16.9006 6.78497 16.8999 7.26905 16.6011 7.56762L9.54805 14.6159L4.88217 9.95002C4.58373 9.65158 4.58373 9.16772 4.88217 8.86928Z" fill="white" />
  </symbol>
  <symbol id="checkbox-unchecked-disabled" viewBox="0 0 20 20" fill="none">
    <rect x="0.5" y="0.5" width="19" height="19" rx="5.5" stroke="#D2DCEF" />
  </symbol>
  <symbol id="search-icon" viewBox="0 0 12 12" fill="none">
    <path d="M9.5 5.01758C9.5 7.50286 7.48528 9.51758 5 9.51758C2.51472 9.51758 0.5 7.50286 0.5 5.01758C0.5 2.5323 2.51472 0.517578 5 0.517578C7.48528 0.517578 9.5 2.5323 9.5 5.01758ZM1.98293 5.01758C1.98293 6.68386 3.33372 8.03465 5 8.03465C6.66628 8.03465 8.01707 6.68386 8.01707 5.01758C8.01707 3.3513 6.66628 2.00051 5 2.00051C3.33372 2.00051 1.98293 3.3513 1.98293 5.01758Z" fill="currentColor" />
    <rect x="8.09473" y="6.96289" width="5.05224" height="1.6" rx="0.8" transform="rotate(45 8.09473 6.96289)" fill="currentColor" />
  </symbol>
  <symbol id="control-next" viewBox="0 0 12 12" fill="none">
    <path d="M3.63958 10.8394C3.33004 10.5299 3.33004 10.028 3.63958 9.71847L7.35814 5.9999L3.64214 2.2839C3.3314 1.97316 3.332 1.46917 3.64349 1.15918C3.95402 0.850127 4.45615 0.850855 4.76579 1.1608L9.60006 5.9999L4.76054 10.8394C4.45099 11.149 3.94912 11.149 3.63958 10.8394Z" fill="currentColor" />
  </symbol>
  <symbol id="control-prev" viewBox="0 0 12 12" fill="none">
    <path d="M8.43952 1.16058C8.74907 1.47012 8.74907 1.97199 8.43952 2.28153L4.72096 6.0001L8.43697 9.7161C8.7477 10.0268 8.7471 10.5308 8.43562 10.8408C8.12508 11.1499 7.62295 11.1491 7.31331 10.8392L2.47904 6.0001L7.31856 1.16058C7.62811 0.851033 8.12998 0.851033 8.43952 1.16058Z" fill="currentColor" />
  </symbol>
  <symbol id="link-icon" viewBox="0 0 13 12" fill="none">
    <path d="M10.1426 11H2.14258C1.59029 11 1.14258 10.5523 1.14258 10V2C1.14258 1.44772 1.59029 1 2.14258 1H5.14258V2.5H2.64258V9.5H9.64258V7H11.1426V10C11.1426 10.5523 10.6949 11 10.1426 11Z" fill="currentColor" />
    <path d="M7.10826 1H11.1426V5.03431C11.1426 5.39068 10.7117 5.56914 10.4597 5.31716L9.14258 4L5.64258 7.5C5.36644 7.77614 4.91872 7.77614 4.64258 7.5C4.36644 7.22386 4.36644 6.77614 4.64258 6.5L8.14258 3L6.82542 1.68284C6.57344 1.43086 6.7519 1 7.10826 1Z" fill="currentColor" />
  </symbol>
  <symbol id="trash-icon" viewBox="0 0 16 16" fill="none">
    <path fill-rule="evenodd" clip-rule="evenodd" d="M1 3C1 3.55228 1.44772 4 2 4H14C14.5523 4 15 3.55228 15 3C15 2.44772 14.5523 2 14 2H10C10 1.5 9.6 0.5 8 0.5C6.4 0.5 6 1.5 6 2H2C1.44772 2 1 2.44772 1 3ZM2.8199 13.199L2 5H14L13.1801 13.199C13.0779 14.2214 12.2175 15 11.19 15H4.80997C3.78247 15 2.92214 14.2214 2.8199 13.199ZM5.05973 7.27651L5.46312 12.5206C5.48393 12.7911 5.7095 13 5.9808 13C6.26755 13 6.5 12.7675 6.5 12.4808V7.2212C6.5 6.82289 6.17711 6.5 5.7788 6.5C5.3587 6.5 5.02751 6.85764 5.05973 7.27651ZM10.9403 7.27651L10.5369 12.5206C10.5161 12.7911 10.2905 13 10.0192 13C9.73245 13 9.5 12.7675 9.5 12.4808V7.2212C9.5 6.82289 9.82289 6.5 10.2212 6.5C10.6413 6.5 10.9725 6.85764 10.9403 7.27651Z" fill="currentColor" />
  </symbol>
  <symbol id="transfers-icon" viewBox="0 0 25 24" fill="none">
    <path fill-rule="evenodd" clip-rule="evenodd" d="M23.5 12C23.5 18.0751 18.5751 23 12.5 23C6.42487 23 1.5 18.0751 1.5 12C1.5 5.92487 6.42487 1 12.5 1C18.5751 1 23.5 5.92487 23.5 12ZM14.5002 15.4181C14.5002 15.9703 14.0525 16.4181 13.5002 16.4181L9.96927 16.4181L10.5001 16.9491C10.8906 17.3396 10.8906 17.9728 10.5001 18.3633C10.1095 18.7538 9.47638 18.7538 9.08585 18.3633L6.88939 16.166C6.8735 16.152 6.85794 16.1374 6.84276 16.1222C6.56865 15.8481 6.48694 15.4545 6.59763 15.1091C6.64453 14.9616 6.72647 14.8228 6.84345 14.7058C6.85437 14.6949 6.86547 14.6843 6.87675 14.674L9.08577 12.4672C9.4763 12.0767 10.1095 12.0767 10.5 12.4672C10.8905 12.8577 10.8905 13.4909 10.5 13.8814L9.96114 14.4181L13.5002 14.4181C14.0525 14.4181 14.5002 14.8658 14.5002 15.4181ZM11.4999 7.49585C10.9476 7.49585 10.4999 7.94357 10.4999 8.49585C10.4999 9.04814 10.9476 9.49585 11.4999 9.49585L15.0389 9.49585L14.5 10.0335C14.1095 10.424 14.1095 11.0571 14.5 11.4477C14.8905 11.8382 15.5237 11.8382 15.9142 11.4477L18.1233 9.23989C18.1346 9.22958 18.1457 9.21898 18.1566 9.20807C18.2736 9.09108 18.3555 8.95232 18.4024 8.80483C18.5131 8.45945 18.4314 8.0658 18.1573 7.79169C18.1421 7.7765 18.1266 7.76191 18.1107 7.74791L15.9142 5.55056C15.5237 5.16003 14.8905 5.16003 14.5 5.55056C14.1095 5.94108 14.1095 6.57424 14.5 6.96477L15.0308 7.49585L11.4999 7.49585Z" fill="currentColor" />
  </symbol>
  <symbol id="operations-icon" viewBox="0 0 21 18" fill="none">
    <path fill-rule="evenodd" clip-rule="evenodd" d="M2 0C1.17157 0 0.5 0.671573 0.5 1.5C0.5 2.32843 1.17157 3 2 3H4C4.82843 3 5.5 2.32843 5.5 1.5C5.5 0.671573 4.82843 0 4 0H2ZM10 0C9.17157 0 8.5 0.671573 8.5 1.5C8.5 2.32843 9.17157 3 10 3H19C19.8284 3 20.5 2.32843 20.5 1.5C20.5 0.671573 19.8284 0 19 0H10ZM0.5 16.5C0.5 15.6716 1.17157 15 2 15H4C4.82843 15 5.5 15.6716 5.5 16.5C5.5 17.3284 4.82843 18 4 18H2C1.17157 18 0.5 17.3284 0.5 16.5ZM2 7.5C1.17157 7.5 0.5 8.17157 0.5 9C0.5 9.82843 1.17157 10.5 2 10.5H4C4.82843 10.5 5.5 9.82843 5.5 9C5.5 8.17157 4.82843 7.5 4 7.5H2ZM8.5 16.5C8.5 15.6716 9.17157 15 10 15H19C19.8284 15 20.5 15.6716 20.5 16.5C20.5 17.3284 19.8284 18 19 18H10C9.17157 18 8.5 17.3284 8.5 16.5ZM10 7.49917C9.17157 7.49917 8.5 8.17074 8.5 8.99917C8.5 9.82759 9.17157 10.4992 10 10.4992H17C17.8284 10.4992 18.5 9.82759 18.5 8.99917C18.5 8.17074 17.8284 7.49917 17 7.49917H10Z" fill="currentColor" />
  </symbol>
  <symbol id="plus-icon" viewBox="0 0 30 30" fill="none">
    <path d="M29.113 14.9994C29.113 14.2968 28.5434 13.7272 27.8408 13.7272H16.2725L16.2725 2.15885C16.2725 1.45627 15.7029 0.886719 15.0003 0.886719C14.2978 0.886719 13.7282 1.45627 13.7282 2.15885L13.7282 13.7272H2.15983C1.45725 13.7272 0.887695 14.2968 0.887695 14.9994C0.887695 15.7019 1.45725 16.2715 2.15983 16.2715H13.7282L13.7282 27.8399C13.7282 28.5424 14.2978 29.112 15.0003 29.112C15.7029 29.112 16.2725 28.5424 16.2725 27.8399L16.2725 16.2715H27.8408C28.5434 16.2715 29.113 15.7019 29.113 14.9994Z" fill="currentColor" />
  </symbol>
  <symbol id="attention-icon" viewBox="0 0 16 16" fill="none">
    <path d="M15.6629 11.136L10.1586 1.28909C9.19995 -0.429696 6.80014 -0.429696 5.83514 1.28909L0.337167 11.136C-0.621486 12.8548 0.578418 15 2.49572 15H13.498C15.4217 15.0065 16.6216 12.8548 15.6629 11.136ZM8.86347 4.12967L8.67301 9.99452H7.32073L7.13027 4.12967H8.86347ZM8.66031 12.4284C8.49524 12.5924 8.27304 12.6777 8.00004 12.6777C7.72705 12.6777 7.5112 12.5924 7.34613 12.4284C7.18106 12.2644 7.09853 12.0479 7.09853 11.792C7.09853 11.5362 7.18106 11.3263 7.34613 11.1557C7.5112 10.9851 7.7334 10.8998 8.00004 10.8998C8.27304 10.8998 8.49524 10.9851 8.66031 11.1491C8.82538 11.3131 8.90791 11.5296 8.90791 11.7855C8.90791 12.0544 8.82538 12.2644 8.66031 12.4284Z" fill="currentColor" />
  </symbol>
  <symbol id="info-icon" viewBox="0 0 16 16" fill="none">
    <g>
      <path d="M13.6582 13.6592C10.5363 16.7811 5.4683 16.7811 2.34635 13.6592C-0.775605 10.5372 -0.775605 5.46927 2.34635 2.34732C5.4683 -0.774628 10.5363 -0.774628 13.6582 2.34732C16.7802 5.46927 16.7802 10.532 13.6582 13.6592Z" fill="currentColor" />
      <path d="M7 6.5H9V12.5H7V6.5Z" fill="white" />
      <circle cx="8" cy="4" r="1" fill="white" />
    </g>
  </symbol>
  <symbol id="wrong-icon" viewBox="0 0 30 30" fill="none">
    <g>
      <path d="M25.6 25.6098C19.7463 31.4634 10.2439 31.4634 4.39024 25.6098C-1.46341 19.7561 -1.46341 10.2537 4.39024 4.40001C10.2439 -1.45365 19.7463 -1.45365 25.6 4.40001C31.4537 10.2537 31.4537 19.7464 25.6 25.6098Z" fill="currentColor" />
      <path d="M16.4799 18.0238H13.5077L13.0867 5H16.9009L16.4799 18.0238ZM14.9938 20.0632C15.5965 20.0632 16.0795 20.2482 16.4427 20.6182C16.8142 20.9882 17 21.4615 17 22.038C17 22.606 16.8142 23.075 16.4427 23.445C16.0795 23.815 15.5965 24 14.9938 24C14.3994 24 13.9164 23.815 13.5449 23.445C13.1816 23.075 13 22.606 13 22.038C13 21.4701 13.1816 21.0011 13.5449 20.6311C13.9164 20.2525 14.3994 20.0632 14.9938 20.0632Z" fill="white" />
    </g>
  </symbol>
  <symbol id="qr-icon" viewBox="0 0 16 16" fill="none">
    <rect x="1" y="1" width="7" height="7" rx="1" fill="currentColor" />
    <path fill-rule="evenodd" clip-rule="evenodd" d="M10 1C9.44772 1 9 1.44772 9 2V6C9 6.55228 9.44772 7 10 7H14C14.5523 7 15 6.55228 15 6V2C15 1.44772 14.5523 1 14 1H10ZM10.5 2C10.2239 2 10 2.22386 10 2.5V5.5C10 5.77614 10.2239 6 10.5 6H13.5C13.7761 6 14 5.77614 14 5.5V2.5C14 2.22386 13.7761 2 13.5 2H10.5Z" fill="currentColor" />
    <path fill-rule="evenodd" clip-rule="evenodd" d="M2 9.5C2 9.22386 1.77614 9 1.5 9C1.22386 9 1 9.22386 1 9.5V14C1 14.5523 1.44772 15 2 15H6.5C6.77614 15 7 14.7761 7 14.5C7 14.2239 6.77614 14 6.5 14H3C2.44772 14 2 13.5523 2 13V9.5Z" fill="currentColor" />
    <rect x="10" y="10" width="5" height="5" rx="1" fill="currentColor" />
  </symbol>
</svg>
